<?xml version="1.0" encoding="utf-8"?>
<!-- Svg Vector Icons : http://www.onlinewebfonts.com/icon -->
<!DOCTYPE svg PUBLIC "-//W3C//DTD SVG 1.1//EN" "http://www.w3.org/Graphics/SVG/1.1/DTD/svg11.dtd">
<svg version="1.1" xmlns="http://www.w3.org/2000/svg" xmlns:xlink="http://www.w3.org/1999/xlink" x="0px" y="0px" viewBox="0 0 256 256" enable-background="new 0 0 256 256" xml:space="preserve">
<metadata> Svg Vector Icons : http://www.onlinewebfonts.com/icon </metadata>
<g><g><path fill="#000000" d="M169,91.8c-12.9,0-23.4,10.4-23.4,23.3c0,12.9,10.5,23.3,23.4,23.3c12.9,0,23.4-10.4,23.4-23.3C192.4,102.2,181.9,91.8,169,91.8z M168.9,127.5c-6.9,0-12.5-5.6-12.5-12.5c0-6.9,5.6-12.5,12.5-12.5c6.9,0,12.5,5.6,12.5,12.5S175.9,127.5,168.9,127.5z M229.7,56.9H26.3c-9,0-16.3,7.3-16.3,16.3v159c0,9,7.3,16.3,16.3,16.3h203.4c9,0,16.3-7.3,16.3-16.3v-159C246,64.2,238.7,56.9,229.7,56.9z M32.2,234.1c-4.5,0-8.1-3.6-8.1-8.1v-26.5l71-53.7l93,88.3H32.2z M231.9,225.9c0,4.5-3.6,8.1-8.1,8.1h-14.9l-36.6-35.2c-0.8-0.6-0.9-0.6-0.7-0.8l30.7-29.7l28.3,26.4c0.5,0.5,1,0.7,1.4,1.2L231.9,225.9L231.9,225.9z M232.5,177.4l-23.5-23c-1.8-1.9-5-2.8-6.6-2.8c-1.5,0-4.5,0.8-6.2,2.5l-34.9,32.6c-0.5,0.4-0.9,0.9-1.2,1.5l-57.8-56.7c-1.9-2-4.2-2.9-5.4-3c-1.8-0.2-5.7,0.8-8.3,3.3l-64.6,48.8V79.4c0-4.5,3.6-8.1,8.1-8.1h191.5c4.5,0,8.1,3.6,8.1,8.1v98H232.5z M39.6,49.2c1.4-2.3,4-3.9,6.9-3.9H209c3,0,5.5,1.6,6.9,3.9h17.7c-0.1-8.8-7.3-17.9-16.2-17.9H38.2c-8.9,0-16,9.1-16.2,17.9H39.6z M54.5,23.2c1.2-1.2,2.3-2,4.2-2h137.6c1.9,0,2.9,0.8,4.2,2h16.7c-0.1-7.5-6.2-15.8-13.7-15.8H51.6c-7.5,0-13.6,8.3-13.7,15.8H54.5z"/></g></g>
</svg>